<?xml version="1.0" standalone="no"?>
<!DOCTYPE svg PUBLIC "-//W3C//DTD SVG 20010904//EN"
 "http://www.w3.org/TR/2001/REC-SVG-20010904/DTD/svg10.dtd">
<svg version="1.0" xmlns="http://www.w3.org/2000/svg"
 width="280.000000pt" height="280.000000pt" viewBox="0 0 280.000000 280.000000"
 preserveAspectRatio="xMidYMid meet">
<metadata>
Created by potrace 1.14, written by Peter Selinger 2001-2017
</metadata>
<g transform="translate(0.000000,280.000000) scale(0.100000,-0.100000)"
fill="#000000" stroke="none">
<path d="M965 2624 c-11 -3 -51 -12 -90 -21 -141 -32 -273 -110 -376 -220 -30
-32 -71 -71 -92 -87 -82 -63 -188 -238 -227 -378 -59 -207 -25 -383 97 -500
59 -57 209 -138 255 -138 37 0 72 20 88 50 9 17 4 26 -32 57 -58 51 -147 138
-128 126 8 -6 42 -30 75 -55 117 -86 137 -95 173 -86 25 7 41 22 64 58 26 42
36 50 61 50 21 0 41 11 70 41 l41 40 -50 42 c-123 105 -132 120 -30 52 80 -54
104 -65 125 -60 32 8 80 52 87 81 3 12 16 25 29 28 29 7 85 71 85 97 0 19 -51
102 -114 184 -50 65 0 18 70 -67 l66 -78 29 21 c34 24 59 67 59 102 0 17 10
28 35 40 19 9 42 31 51 48 20 39 13 57 -68 170 -30 42 -58 82 -62 90 -9 17 62
-56 121 -124 38 -44 43 -47 62 -35 24 15 51 66 51 97 0 35 -49 154 -87 209
-42 61 -112 116 -186 144 -51 20 -205 33 -252 22z"/>
<path d="M1450 2076 c-7 -20 -8 -45 -1 -80 5 -28 12 -70 15 -94 l6 -43 -29 16
c-16 8 -38 28 -48 45 -16 28 -43 41 -43 21 0 -5 -2 -16 -6 -24 -8 -21 42 -75
97 -103 27 -13 49 -30 49 -37 0 -6 13 -39 29 -73 36 -76 97 -129 172 -152 55
-16 57 -18 68 -62 32 -124 107 -226 232 -314 46 -33 119 -85 163 -115 114 -81
126 -102 126 -227 0 -121 12 -194 43 -253 22 -44 82 -94 127 -106 20 -5 16 1
-21 34 -77 67 -91 110 -99 291 -4 85 -10 163 -15 173 -4 10 -33 43 -65 73
l-57 54 -6 128 c-6 148 -29 225 -79 268 -47 39 -72 46 -193 53 l-110 6 -11 50
c-17 73 -29 98 -65 139 -37 43 -81 67 -161 91 l-57 16 -6 57 c-9 77 -25 164
-35 182 -7 12 -11 9 -20 -14z m175 -313 c61 -31 104 -88 119 -160 l7 -32 -45
15 c-78 27 -145 98 -171 183 -7 22 -5 23 27 16 18 -4 47 -14 63 -22z m448
-266 c69 -41 88 -90 98 -246 4 -69 5 -128 3 -130 -11 -11 -230 154 -273 206
-37 44 -77 123 -86 172 l-7 34 109 -5 c97 -4 116 -8 156 -31z"/>
<path d="M1278 1822 c-22 -17 -38 -38 -42 -56 -4 -17 -26 -48 -51 -72 -25 -23
-45 -48 -45 -57 0 -20 27 -29 52 -16 26 14 46 5 50 -23 3 -20 9 -23 45 -23 23
0 45 -3 49 -7 4 -4 9 -30 12 -58 5 -57 10 -62 67 -70 38 -5 40 -7 45 -45 7
-51 13 -61 61 -91 29 -18 39 -31 39 -50 0 -37 16 -61 45 -68 21 -5 25 -12 25
-45 0 -34 6 -45 44 -78 24 -21 51 -55 59 -75 11 -27 27 -42 68 -62 30 -14 62
-31 71 -38 12 -9 23 -9 40 -2 13 6 43 17 68 25 51 16 93 67 88 109 -5 41 -33
36 -50 -9 -19 -48 -51 -60 -117 -42 -65 16 -90 50 -145 191 -67 171 -141 316
-227 445 -65 97 -192 246 -208 244 -3 0 -22 -13 -43 -27z"/>
<path d="M1050 1569 c-24 -16 -49 -29 -55 -29 -6 0 -22 -14 -35 -32 l-23 -32
59 -55 c50 -47 83 -66 200 -115 228 -97 249 -110 301 -176 25 -33 47 -60 49
-60 1 0 0 26 -3 58 -7 68 -59 158 -102 173 -14 5 -34 22 -43 39 -13 24 -24 29
-60 32 -40 3 -45 6 -64 47 -24 50 -45 65 -79 57 -28 -7 -42 8 -53 59 -4 21
-16 43 -27 50 -17 11 -27 8 -65 -16z"/>
<path d="M857 1433 c-15 -4 -14 -9 13 -39 50 -57 44 -61 -71 -38 -17 3 -31 -1
-43 -15 -17 -18 -16 -19 11 -25 15 -3 56 -8 90 -11 61 -7 61 -7 68 -43 26
-142 132 -238 280 -254 l30 -3 6 -105 c7 -123 29 -184 80 -223 47 -35 95 -46
229 -53 l115 -7 50 -51 c28 -28 60 -58 71 -67 13 -10 24 -33 28 -60 4 -24 11
-51 17 -59 9 -13 10 -13 6 1 -3 9 -8 36 -12 60 l-7 44 154 -6 c180 -6 207 -15
287 -92 l53 -52 -25 51 c-55 110 -135 146 -332 148 -66 1 -129 7 -140 13 -33
19 -69 62 -155 188 -131 191 -224 276 -341 309 -53 16 -57 19 -68 59 -34 114
-109 186 -225 212 -31 7 -54 19 -60 31 -47 87 -62 99 -109 87z m211 -169 c18
-7 47 -23 63 -35 33 -23 89 -113 89 -143 0 -16 -5 -18 -45 -13 -100 14 -168
80 -190 185 -7 32 -6 33 22 26 15 -4 43 -13 61 -20z m303 -306 c69 -36 156
-125 229 -233 27 -41 50 -77 50 -81 0 -4 -48 -4 -107 -2 -125 6 -178 24 -222
74 -39 43 -51 90 -51 192 0 77 1 82 21 82 12 0 48 -14 80 -32z"/>
<path d="M2441 957 c2 -1 15 -11 29 -22 l25 -20 -19 23 c-11 12 -24 22 -29 22
-6 0 -8 -1 -6 -3z"/>
</g>
</svg>
